Coordinates
version=1
nRows=12
nColumns=42
inDegrees=yes

Units are S.I. units (second, meters, Newtons, ...)
If the header above contains a line with 'inDegrees', this indicates whether rotational values are in degrees (yes) or radians (no).

endheader
time	pelvis_tilt	pelvis_list	pelvis_rotation	pelvis_tx	pelvis_ty	pelvis_tz	hip_flexion_r	hip_adduction_r	hip_rotation_r	knee_angle_r	knee_adduction_r	knee_angle_r_beta	ankle_angle_r	subtalar_angle_r	mtp_angle_r	hip_flexion_l	hip_adduction_l	hip_rotation_l	knee_angle_l	knee_adduction_l	knee_angle_l_beta	ankle_angle_l	subtalar_angle_l	mtp_angle_l	lumbar_extension	lumbar_bending	lumbar_rotation	arm_flex_r	arm_add_r	arm_rot_r	elbow_flex_r	pro_sup_r	wrist_flex_r	wrist_dev_r	arm_flex_l	arm_add_l	arm_rot_l	elbow_flex_l	pro_sup_l	wrist_flex_l	wrist_dev_l
      0.81000000	      7.91799800	     -1.72304293	     -0.39552884	     -0.21545325	      0.86451288	     -0.29669399	    -28.82806827	      5.78739691	      0.36320085	      9.69523537	     -3.56601388	      0.16921378	     20.60586560	     14.89272215	     -7.62180581	     16.59422835	     -4.18559583	    -21.45622989	     10.55736227	      4.29045956	      0.18426073	      9.26225684	     13.61478853	     -7.62180581	    -18.55350352	     -1.46613507	      3.96297924	     -1.52118357	     -2.84492626	    -15.32934839	     58.22433585	     90.00000001	      0.00000000	      0.00000000	     -5.23854319	     -4.92774515	    -22.78653548	     35.67616356	     90.00000001	      0.00000000	      0.00000000
      0.82000000	      7.54744512	     -1.70324644	     -0.45173289	     -0.20321709	      0.86265327	     -0.29681026	    -28.99153744	      5.66444571	      0.06535358	     10.34833531	     -3.56296694	      0.18061252	     20.47191415	     14.91076745	     -7.61999935	     17.11855659	     -3.88354832	    -21.16407424	     11.01097370	      4.07695016	      0.19217774	      9.27366484	     13.52050846	     -7.61999935	    -18.01144683	     -1.51071219	      4.02974698	     -1.57669949	     -2.83067338	    -15.29906941	     57.93993133	     90.00000001	      0.00000000	      0.00000000	     -5.47864156	     -5.05822176	    -22.73873757	     35.32884355	     90.00000001	      0.00000000	      0.00000000
      0.83000000	      7.19664067	     -1.57059094	     -0.60001377	     -0.19077204	      0.86088525	     -0.29697249	    -29.15374898	      5.35402268	     -0.20255244	     11.05372987	     -3.53745994	      0.19292398	     20.33368097	     14.99356089	     -7.61860004	     17.57025561	     -3.45818997	    -20.63526903	     11.71578348	      3.76536754	      0.20447900	      9.21344936	     13.33078089	     -7.61860004	    -17.48332287	     -1.69125391	      4.14247292	     -1.72760891	     -2.81277980	    -15.32403060	     57.72468524	     90.00000001	      0.00000000	      0.00000000	     -5.72904036	     -5.15094585	    -22.82224160	     35.10156976	     90.00000001	      0.00000000	      0.00000000
      0.84000000	      6.99701149	     -0.84092680	     -0.68335331	     -0.17789372	      0.85923698	     -0.29762937	    -29.14934141	      4.22795988	     -2.37377100	     12.40394868	     -3.26379792	      0.21648974	     20.74131131	     17.16928573	     -7.60898233	     17.81525777	     -2.23594393	    -20.08021276	     12.58269146	      3.17675394	      0.21960939	      8.94838479	     12.33759007	     -7.60898233	    -17.07596117	     -2.47704490	      4.05290276	     -1.85587042	     -2.70706041	    -15.44371917	     57.43016579	     90.00000001	      0.00000000	      0.00000000	     -5.91224576	     -5.17115306	    -23.63245415	     34.77337154	     90.00000001	      0.00000000	      0.00000000
      0.85000000	      6.65191005	     -0.49117929	     -0.73245641	     -0.16514079	      0.85766182	     -0.29805715	    -29.24523009	      3.69445225	     -2.89836289	     13.27329695	     -3.17625722	      0.23166273	     20.41052725	     17.08381491	     -7.60702286	     18.39353174	     -1.51127970	    -19.47675061	     14.01362923	      2.51292945	      0.24458397	      8.74271295	     11.63777232	     -7.60702286	    -16.54926065	     -2.86755557	      4.07011391	     -2.04634647	     -2.66751461	    -15.50566132	     57.09529050	     90.00000001	      0.00000000	      0.00000000	     -6.12441565	     -5.28403165	    -23.67460546	     34.52602275	     90.00000001	      0.00000000	      0.00000000
      0.86000000	      6.48267017	      0.40041769	     -0.87720727	     -0.15213223	      0.85640580	     -0.29876208	    -29.24966821	      2.36378612	     -4.74094931	     14.68330873	     -2.98335783	      0.25627208	     20.45756416	     18.76059814	     -7.59799257	     18.60888222	     -0.13030503	    -18.60371447	     15.24523005	      1.81829630	      0.26607946	      8.14408185	      9.99502725	     -7.59799257	    -16.20647316	     -3.84878396	      4.03564926	     -2.25296838	     -2.55969107	    -15.68845768	     56.73534548	     90.00000001	      0.00000000	      0.00000000	     -6.30616684	     -5.35971889	    -24.17377216	     34.38008870	     90.00000001	      0.00000000	      0.00000000
      0.87000000	      6.21241538	      0.93835890	     -0.89070152	     -0.13922158	      0.85529085	     -0.29925019	    -29.29749186	      1.62051381	     -5.32942252	     15.79280858	     -2.88143781	      0.27563651	     19.86977885	     18.53621800	     -7.59595260	     19.22700255	      0.73734324	    -18.03373320	     17.22600725	      1.05263537	      0.30065054	      7.91401893	      9.00140024	     -7.59595260	    -15.79086448	     -4.45869533	      4.02440559	     -2.47746410	     -2.50172267	    -15.83631698	     56.29148064	     90.00000001	      0.00000000	      0.00000000	     -6.47029238	     -5.50628320	    -24.25253101	     34.23220678	     90.00000001	      0.00000000	      0.00000000
      0.88000000	      6.04622836	      1.56257734	     -0.96468664	     -0.12631888	      0.85457173	     -0.29979620	    -29.33287832	      0.68256249	     -5.91034799	     17.09750260	     -2.66627766	      0.29840771	     19.09178646	     18.42049308	     -7.59481147	     19.72818998	      1.64423584	    -17.38924725	     19.30189120	      0.35236806	      0.33688155	      7.77111509	      7.89269320	     -7.59481147	    -15.51886961	     -5.16216651	      3.97097135	     -2.65094591	     -2.36428922	    -16.01631092	     55.82044458	     90.00000001	      0.00000000	      0.00000000	     -6.62241895	     -5.60212157	    -24.39817281	     34.08888087	     90.00000001	      0.00000000	      0.00000000
      0.89000000	      6.08227716	      2.77888073	     -1.05101975	     -0.11328992	      0.85431865	     -0.30073944	    -29.24437693	     -1.05421676	     -7.95289793	     19.08548648	     -2.55734889	      0.33310458	     18.72692374	     20.18976767	     -7.58689989	     19.62310580	      3.33826651	    -15.51329872	     20.63570714	      0.13338901	      0.36016103	      6.95826915	      4.06110937	     -7.58689989	    -15.48116340	     -6.48525993	      3.83660000	     -2.86039189	     -2.21284406	    -16.28939931	     55.30155156	     90.00000001	      0.00000000	      0.00000000	     -6.71088983	     -5.68326498	    -24.87658833	     34.09855646	     90.00000001	      0.00000000	      0.00000000
      0.90000000	      6.09970588	      3.35027748	     -1.09773901	     -0.10024442	      0.85431356	     -0.30126681	    -29.26330097	     -1.91640894	     -8.21117477	     20.72409392	     -2.44819331	      0.36170367	     17.47657169	     19.75803848	     -7.58577204	     19.85291475	      4.03992197	    -14.70114398	     22.82040710	     -0.10319485	      0.39829124	      7.34880670	      2.84012461	     -7.58577204	    -15.43236153	     -7.13545802	      3.84421597	     -3.10284478	     -2.16164808	    -16.45454720	     54.72506724	     90.00000001	      0.00000000	      0.00000000	     -6.79094769	     -5.77226441	    -24.92510434	     34.06922837	     90.00000001	      0.00000000	      0.00000000
      0.91000000	      6.21948474	      4.30067445	     -1.14516550	     -0.08745874	      0.85480581	     -0.30192188	    -29.09861218	     -3.27733023	     -8.99098713	     22.88221517	     -2.32139390	      0.39936999	     16.31729614	     19.82287859	     -7.57918471	     19.46950370	      5.31908611	    -12.01317771	     24.00683809	      0.44831457	      0.41899837	      6.68289634	     -2.14582663	     -7.57918471	    -15.56541550	     -8.19736077	      3.67526274	     -3.23790552	     -1.98640842	    -16.73058288	     54.12601459	     90.00000001	      0.00000000	      0.00000000	     -6.86587237	     -5.90216682	    -25.03497500	     34.17639080	     90.00000001	      0.00000000	      0.00000000
      0.92000000	      6.47715930	      4.79698636	     -1.30369174	     -0.07447628	      0.85554533	     -0.30214969	    -28.97379029	     -4.12570950	     -8.95423849	     25.09297311	     -2.30273360	      0.43795500	     14.78274657	     19.25268559	     -7.57778719	     19.12861911	      5.83524238	    -11.05321355	     25.72152694	      0.70177184	      0.44892533	      7.49756968	     -3.46732851	     -7.57778719	    -15.80324105	     -8.80973018	      3.76672543	     -3.46135229	     -1.93703395	    -16.85947210	     53.52211948	     90.00000001	      0.00000000	      0.00000000	     -6.90742672	     -5.97805394	    -25.07270804	     34.29306401	     90.00000001	      0.00000000	      0.00000000
